# xmcd
#
# Track frame offsets:
#	187
#	14817
#	30842
#	44695
#	57900
#	74642
#	87302
#	102745
#	121090
#	136832
#
# Disc length: 1946 seconds
#
# Revision: 2
# Processed by: cddbd v1.5.1PL0 Copyright (c) Steve Scherf et al.
# Submitted via: EasyCDDAExtractor 7.0.5.4
#
DISCID=8d07980a
DTITLE=The Bellamy Brothers - Howard And David
DYEAR=1985
DGENRE=Country
TTITLE0=Wheels 
TTITLE1=Season Of Wind
TTITLE2=The Single Man And His Wife
TTITLE3=I'm Gonna Hurt Her On The Radio
TTITLE4=Feelin'  The Feelin'
TTITLE5=You're My Favorite Waste Of Time
TTITLE6=Lie To You for Your Love
TTITLE7=Old Hippie
TTITLE8=Everybody's Somebody's Darlin'
TTITLE9=Jennie Rae
EXTD=
EXTT0=
EXTT1=
EXTT2=
EXTT3=
EXTT4=
EXTT5=
EXTT6=
EXTT7=
EXTT8=
EXTT9=
PLAYORDER=
